<?xml version="1.0" standalone="no"?>
<!DOCTYPE svg PUBLIC "-//W3C//DTD SVG 20010904//EN"
 "http://www.w3.org/TR/2001/REC-SVG-20010904/DTD/svg10.dtd">
<svg version="1.0" xmlns="http://www.w3.org/2000/svg"
 width="900.000000pt" height="553.000000pt" viewBox="0 0 900.000000 553.000000"
 preserveAspectRatio="xMidYMid meet">

<g transform="translate(0.000000,553.000000) scale(0.100000,-0.100000)"
fill="#000000" stroke="none">
<path d="M7140 4924 c-11 -4 -14 -17 -11 -56 l3 -51 19 54 c10 30 18 55 19 57
0 2 -9 1 -30 -4z"/>
<path d="M6993 4870 c0 -30 2 -43 4 -27 2 15 2 39 0 55 -2 15 -4 2 -4 -28z"/>
<path d="M6885 4875 c9 -22 21 -44 27 -50 5 -5 2 8 -7 30 -9 22 -21 45 -26 50
-6 6 -3 -8 6 -30z"/>
<path d="M7041 4894 c0 -11 3 -14 6 -6 3 7 2 16 -1 19 -3 4 -6 -2 -5 -13z"/>
<path d="M6720 4887 c0 -14 31 -69 36 -64 3 3 -4 20 -15 38 -12 19 -21 30 -21
26z"/>
<path d="M7030 4863 c0 -6 8 -17 18 -24 16 -13 16 -13 2 6 -8 11 -16 22 -17
24 -2 2 -3 0 -3 -6z"/>
<path d="M2658 4635 c-2 -2 -290 -5 -639 -6 -349 0 -644 -5 -656 -9 -18 -8
-22 -19 -27 -92 -8 -114 -31 -1129 -61 -2668 -3 -157 -8 -355 -11 -442 -6
-152 -5 -157 16 -178 l22 -22 2522 7 c1386 4 2568 9 2626 11 58 1 391 3 741 3
569 1 638 3 659 18 l23 16 -7 246 c-3 135 -11 397 -16 581 -5 184 -14 520 -20
745 -6 226 -12 451 -15 500 -2 50 -7 211 -11 358 -4 147 -10 269 -13 271 -7 5
-6 -109 4 -359 4 -99 9 -334 11 -523 2 -188 6 -347 9 -352 3 -5 2 -11 -3 -14
-5 -3 -7 -29 -4 -58 2 -29 1 -50 -3 -46 -4 4 -18 3 -31 -2 -15 -6 -26 -5 -30
2 -4 7 -3 8 4 4 16 -10 53 30 46 49 -4 9 -9 13 -12 11 -3 -3 -12 0 -21 7 -14
10 -14 10 -3 -5 9 -11 10 -18 2 -23 -5 -3 -11 -4 -11 -1 -5 22 -4 33 4 44 7 9
6 11 -7 6 -12 -5 -15 -2 -10 10 3 9 11 13 18 9 6 -4 5 1 -3 10 -11 14 -17 15
-30 5 -14 -11 -14 -11 -5 2 7 8 8 24 4 35 -8 22 -3 45 10 45 5 0 6 -13 4 -29
-4 -23 0 -32 16 -41 12 -6 24 -9 27 -7 2 3 -4 8 -15 11 -20 7 -23 21 -9 43 5
8 0 17 -12 25 -13 8 -17 16 -11 23 12 14 -18 14 -40 0 -13 -8 -13 -6 -2 8 8 9
11 21 8 26 -10 16 14 24 32 10 12 -10 11 -6 -3 10 -11 13 -19 26 -18 30 2 3 0
14 -3 24 -5 15 -8 16 -22 5 -15 -12 -16 -11 -3 4 7 10 11 29 9 43 -3 14 -1 25
6 25 7 0 7 3 -1 8 -7 4 -11 23 -10 44 2 25 0 35 -9 31 -7 -3 -10 -12 -7 -21 4
-9 3 -14 -1 -11 -11 10 -16 50 -5 44 5 -4 9 -2 9 4 0 5 3 18 7 28 6 16 5 17
-12 3 -11 -9 -16 -10 -11 -2 4 7 2 12 -4 12 -6 0 -8 5 -5 11 4 5 -1 20 -12 31
-10 12 -12 18 -5 14 17 -10 15 4 -5 28 -18 21 -18 21 4 2 27 -23 29 -16 7 22
-12 21 -13 23 -1 9 8 -10 17 -14 19 -10 3 4 4 3 2 -3 -1 -6 4 -11 12 -11 7 0
11 4 8 9 -3 5 0 17 8 26 12 16 11 16 -6 2 -18 -14 -18 -13 -11 10 4 14 13 28
19 32 8 5 7 8 -2 8 -7 0 -17 -12 -22 -26 -6 -14 -15 -22 -20 -19 -8 5 -8 11 0
20 8 10 8 15 -1 21 -8 5 -9 3 -4 -6 5 -9 4 -11 -4 -6 -16 10 -3 27 17 24 13
-2 18 6 19 32 2 27 0 30 -6 15 -4 -11 -6 -27 -4 -35 3 -9 2 -11 -4 -5 -4 6
-18 10 -31 9 -19 -1 -20 1 -10 15 7 9 19 22 28 30 13 12 13 13 -3 7 -13 -4
-17 -2 -14 6 2 7 9 12 15 11 5 -1 16 5 24 15 11 15 11 16 -3 5 -19 -15 -33 -5
-19 12 7 9 5 17 -7 26 -11 9 -14 10 -9 2 4 -8 2 -13 -6 -13 -8 0 -9 -3 -3 -8
6 -4 11 -14 13 -22 2 -12 -1 -11 -11 2 -8 10 -16 16 -19 13 -2 -3 -5 2 -5 10
0 8 5 11 10 8 6 -4 8 1 4 11 -4 9 -3 15 2 12 12 -8 7 60 -6 76 -7 8 -8 19 -3
28 5 8 5 19 0 25 -6 7 -1 11 15 11 28 0 33 -11 10 -20 -8 -3 -15 -11 -15 -17
0 -7 8 -5 20 6 12 10 19 24 16 31 -2 6 1 18 7 25 7 7 1 5 -12 -6 l-24 -20 7
22 c5 16 2 25 -14 33 -23 13 -25 24 -6 42 11 11 11 17 -3 37 -12 19 -13 23 -2
16 11 -6 13 -4 8 9 -4 9 -3 15 2 12 5 -3 14 0 20 8 9 11 6 13 -13 11 -21 -3
-23 0 -20 23 3 15 5 32 6 39 1 7 6 11 12 10 17 -3 13 27 -7 50 -20 22 -20 22
1 18 15 -2 19 0 15 11 -3 7 -10 11 -16 7 -6 -3 -7 -1 -3 6 6 9 11 9 22 0 12
-10 15 -10 12 2 -2 8 -7 18 -13 22 -6 5 -3 7 8 3 9 -3 17 -1 17 4 0 20 2 25
13 39 9 11 9 13 1 8 -10 -6 -18 7 -29 49 -1 6 3 11 11 11 11 0 11 -3 1 -16
-10 -14 -10 -14 4 -4 9 7 20 9 25 5 5 -4 2 2 -7 13 -8 11 -24 34 -34 50 -18
29 -18 30 0 15 17 -13 18 -13 13 1 -4 9 -1 16 8 16 7 0 11 -4 8 -8 -2 -4 3
-12 12 -17 15 -8 15 -10 0 -15 -9 -4 -16 -1 -16 5 0 6 -3 8 -7 5 -9 -9 38 -58
49 -51 4 3 6 10 3 15 -4 5 -1 9 4 9 6 0 11 4 11 10 0 5 -7 7 -15 4 -10 -4 -13
0 -10 15 2 13 -1 18 -10 15 -9 -4 -13 1 -11 12 2 10 11 21 21 24 17 6 17 7 -4
13 -22 5 -22 27 0 27 6 0 7 -4 4 -10 -4 -6 1 -7 11 -3 11 4 13 8 6 11 -7 2
-12 10 -12 17 0 13 -36 31 -52 27 -4 -1 -5 5 -2 13 5 13 8 13 21 0 13 -13 16
-13 29 0 18 18 38 20 28 3 -4 -7 -3 -8 4 -4 7 4 12 12 12 18 0 10 -16 8 -55
-8 -18 -7 -18 -6 -6 9 7 9 10 17 6 17 -4 0 -1 8 6 18 13 15 12 16 -3 3 -10 -7
-15 -17 -12 -22 3 -5 1 -9 -4 -9 -5 0 -12 9 -15 21 -3 12 -3 18 0 15 12 -12
34 16 23 29 -7 9 -5 16 7 26 16 13 17 12 4 -4 -12 -16 -12 -18 0 -15 8 2 13
-2 12 -7 -1 -6 7 -12 18 -12 10 -1 19 3 19 9 0 6 -3 8 -7 5 -3 -4 -12 -2 -20
4 -9 8 -10 15 -3 24 8 9 8 15 0 20 -8 5 -4 16 12 33 18 22 19 23 2 9 -31 -26
-37 -9 -6 20 15 13 21 22 15 18 -8 -4 -13 1 -13 13 0 15 5 19 20 15 10 -3 19
-8 18 -12 0 -3 0 -8 1 -11 8 -20 6 -107 -2 -117 -6 -9 -6 -13 1 -13 6 0 10 -8
10 -17 -2 -46 15 -419 19 -423 3 -3 2 128 -2 290 -5 230 -10 300 -21 318 l-15
22 -2543 0 c-1399 0 -2545 -2 -2548 -5z m5026 -51 c3 -8 2 -12 -4 -9 -6 3 -10
10 -10 16 0 14 7 11 14 -7z m29 -9 c4 -8 2 -17 -3 -20 -6 -4 -10 3 -10 14 0
25 6 27 13 6z m-32 -28 c-6 -8 -7 -18 -3 -22 4 -5 1 -5 -6 -1 -10 6 -10 11 -1
22 6 8 14 14 16 14 3 0 0 -6 -6 -13z m16 -34 c-4 -3 -2 -12 5 -20 8 -11 7 -12
-6 -7 -9 3 -16 9 -16 13 0 9 11 21 18 21 3 0 2 -3 -1 -7z m-5585 -99 c138 -47
220 -214 173 -355 -23 -69 -97 -149 -168 -180 -77 -35 -193 -33 -263 3 -100
53 -153 140 -154 253 0 105 41 178 142 254 55 41 188 53 270 25z m4328 -92
c49 -24 59 -53 62 -181 l3 -113 -33 -29 -32 -29 -221 0 c-242 0 -265 5 -294
60 -20 39 -21 210 -1 249 28 54 60 61 281 61 171 0 205 -3 235 -18z m839 5
c13 -6 34 -25 45 -40 19 -25 21 -42 21 -158 0 -71 -3 -129 -8 -129 -4 0 -20
-6 -37 -15 -23 -12 -72 -15 -249 -15 l-220 0 -35 34 -36 33 0 120 c0 117 0
120 28 145 15 14 34 28 42 31 32 12 425 7 449 -6z m410 -6 c2 -1 -3 -9 -12
-19 -12 -13 -14 -21 -6 -29 6 -6 7 -13 2 -16 -4 -2 -17 4 -28 15 -14 14 -16
19 -5 16 10 -2 14 4 12 19 -2 16 2 21 15 18 10 -2 20 -4 22 -4z m-3055 -50
c24 -23 26 -31 26 -116 0 -132 4 -129 -215 -133 -170 -3 -173 -3 -201 21 -25
22 -28 31 -30 94 -3 99 4 122 40 144 28 18 47 19 193 17 155 -3 162 -4 187
-27z m-1283 -33 c11 -21 11 -22 -4 -9 -10 7 -17 17 -17 22 0 15 9 10 21 -13z
m29 12 c0 -5 -5 -10 -11 -10 -5 0 -7 5 -4 10 3 6 8 10 11 10 2 0 4 -4 4 -10z
m-307 -20 c-21 -9 -23 -16 -25 -102 l-2 -93 -3 88 c-4 92 4 118 36 116 11 0 9
-3 -6 -9z m74 4 c-3 -3 -12 -4 -19 -1 -8 3 -5 6 6 6 11 1 17 -2 13 -5z m476
-1 c-7 -2 -19 -2 -25 0 -7 3 -2 5 12 5 14 0 19 -2 13 -5z m54 -23 c1 -14 0
-18 -3 -10 -4 8 -14 21 -23 28 -14 13 -14 13 4 10 13 -2 21 -12 22 -28z m4017
-36 c5 -14 4 -15 -9 -4 -17 14 -19 20 -6 20 5 0 12 -7 15 -16z m-4019 -131
c-5 -20 -11 -23 -48 -22 l-42 2 40 6 40 6 5 75 4 75 4 -60 c2 -32 1 -69 -3
-82z m158 90 c-18 -2 -48 -2 -65 0 -18 2 -4 4 32 4 36 0 50 -2 33 -4z m95 0
c-10 -2 -28 -2 -40 0 -13 2 -5 4 17 4 22 1 32 -1 23 -4z m65 0 c-7 -2 -21 -2
-30 0 -10 3 -4 5 12 5 17 0 24 -2 18 -5z m60 0 c-7 -2 -21 -2 -30 0 -10 3 -4
5 12 5 17 0 24 -2 18 -5z m75 0 c-10 -2 -26 -2 -35 0 -10 3 -2 5 17 5 19 0 27
-2 18 -5z m822 -70 l-5 -48 -40 0 c-38 0 -40 2 -40 30 0 26 4 30 32 33 17 2
37 10 43 18 7 8 13 14 14 14 1 0 -1 -21 -4 -47z m45 36 c11 -16 1 -19 -13 -3
-7 8 -8 14 -3 14 5 0 13 -5 16 -11z m2652 -24 c0 -8 -4 -12 -9 -9 -4 3 -8 9
-8 15 0 5 4 9 8 9 5 0 9 -7 9 -15z m-2987 -39 c0 -2 -8 -10 -17 -17 -16 -13
-17 -12 -4 4 13 16 21 21 21 13z m-1527 -13 c-13 -2 -35 -2 -50 0 -16 2 -5 4
22 4 28 0 40 -2 28 -4z m227 -23 c0 -5 -4 -10 -10 -10 -5 0 -10 5 -10 10 0 6
5 10 10 10 6 0 10 -4 10 -10z m40 -4 c0 -3 -4 -8 -10 -11 -5 -3 -10 -1 -10 4
0 6 5 11 10 11 6 0 10 -2 10 -4z m3085 -16 c-3 -5 -16 -15 -28 -21 -21 -10
-21 -9 2 10 25 23 36 27 26 11z m829 -15 c-10 -8 -26 -14 -34 -15 -8 0 -2 9
15 20 33 22 49 18 19 -5z m-2967 -77 c-3 -8 -6 -5 -6 6 -1 11 2 17 5 13 3 -3
4 -12 1 -19z m1731 -43 c0 -14 -4 -28 -9 -31 -10 -6 -12 39 -2 49 10 10 11 9
11 -18z m874 12 c19 -10 23 -17 17 -32 -7 -18 -8 -18 -8 -2 -1 10 -5 15 -11
12 -5 -3 -10 1 -10 9 0 9 -5 16 -11 16 -6 0 -8 -8 -4 -19 3 -11 1 -22 -5 -26
-6 -4 -10 6 -10 24 0 34 6 37 42 18z m-855 -19 c-3 -8 -6 -5 -6 6 -1 11 2 17
5 13 3 -3 4 -12 1 -19z m26 -8 c-3 -12 -8 -19 -11 -16 -5 6 5 36 12 36 2 0 2
-9 -1 -20z m52 10 c3 -6 -1 -7 -9 -4 -10 4 -16 1 -16 -9 0 -8 6 -18 13 -20 9
-4 9 -6 0 -6 -16 -1 -26 17 -19 34 6 17 22 20 31 5z m115 -7 c0 -14 -2 -15 -9
-4 -7 11 -9 11 -13 0 -3 -8 -9 -11 -13 -7 -10 9 3 28 21 28 8 0 14 -8 14 -17z
m36 8 c11 9 14 8 14 -7 0 -16 2 -17 10 -4 11 17 13 9 4 -15 -5 -13 -9 -14 -15
-3 -7 11 -11 10 -19 -2 -6 -9 -10 -10 -10 -3 0 6 -2 17 -3 25 -2 7 -2 9 1 5 2
-4 10 -3 18 4z m700 -3 c5 -8 2 -9 -9 -5 -19 7 -25 -18 -7 -26 6 -3 5 -4 -2
-3 -19 4 -23 46 -4 46 8 0 18 -5 22 -12z m54 2 c0 -5 7 -10 16 -10 8 0 12 5 9
10 -3 6 -2 10 3 10 6 0 12 -6 15 -14 7 -18 -18 -42 -28 -27 -4 7 -15 5 -31 -5
-24 -16 -24 -16 -24 15 0 24 4 31 20 31 11 0 20 -4 20 -10z m73 -11 c-4 -15
-8 -17 -14 -8 -8 14 -3 29 11 29 4 0 6 -9 3 -21z m52 12 c3 -5 1 -12 -4 -15
-5 -4 -12 0 -14 6 -4 8 -6 7 -6 -4 -1 -9 5 -19 12 -21 7 -4 8 -6 1 -6 -16 -1
-37 26 -29 39 8 13 32 13 40 1z m-995 -12 c0 8 2 12 5 9 3 -3 2 -13 -1 -22 -5
-14 -9 -15 -15 -4 -5 7 -9 18 -9 23 0 6 5 3 10 -5 8 -12 10 -12 10 -1z m27
-11 c-3 -8 -6 -5 -6 6 -1 11 2 17 5 13 3 -3 4 -12 1 -19z m-3242 -8 c46 -18
54 -37 55 -133 0 -82 -2 -89 -26 -112 -26 -25 -30 -25 -201 -25 -173 0 -174 0
-199 26 -25 24 -26 30 -22 113 3 95 18 126 62 133 57 10 305 8 331 -2z m567
-20 c29 -30 30 -32 27 -116 -4 -79 -6 -87 -32 -110 -27 -23 -33 -24 -196 -24
-155 0 -170 2 -195 21 -25 19 -26 25 -26 114 0 92 0 94 31 119 30 26 33 26
196 26 l165 0 30 -30z m535 6 c27 -23 28 -28 28 -115 0 -81 -2 -93 -23 -113
-21 -22 -31 -23 -195 -26 -164 -3 -174 -2 -200 18 -26 21 -27 25 -27 116 0 87
2 97 25 119 24 25 27 25 194 25 165 0 171 -1 198 -24z m1217 -38 c9 -12 16
-35 16 -51 0 -27 -2 -28 -42 -25 -36 3 -44 7 -46 26 -4 27 22 72 43 72 7 0 21
-10 29 -22z m2306 -59 c0 -4 -4 -11 -10 -14 -5 -3 -10 -1 -10 5 0 6 -5 8 -12
4 -6 -4 -8 -3 -5 3 7 11 37 13 37 2z m-5407 -16 c-19 -7 -16 -20 7 -26 11 -3
20 -10 20 -16 0 -17 -30 -25 -42 -13 -8 8 -5 9 11 5 12 -3 21 -1 21 6 0 6 -6
11 -14 11 -8 0 -18 5 -21 10 -8 13 3 30 18 29 9 0 9 -2 0 -6z m-518 -13 c-3
-5 2 -11 12 -11 16 -1 16 -2 1 -6 -9 -2 -19 -12 -21 -21 -3 -9 -5 -2 -6 16 0
17 4 32 10 32 5 0 7 -4 4 -10z m570 1 c3 -5 1 -12 -5 -16 -5 -3 -10 1 -10 9 0
18 6 21 15 7z m-514 -28 c-8 -15 -10 -15 -11 -2 0 17 10 32 18 25 2 -3 -1 -13
-7 -23z m39 23 c0 -3 -4 -8 -10 -11 -5 -3 -10 -1 -10 4 0 6 5 11 10 11 6 0 10
-2 10 -4z m68 -14 c2 -7 -5 -12 -15 -12 -15 0 -16 -2 -3 -10 9 -6 10 -10 3
-10 -16 0 -26 18 -19 36 7 17 27 15 34 -4z m72 14 c0 -3 -4 -8 -10 -11 -5 -3
-10 -1 -10 4 0 6 5 11 10 11 6 0 10 -2 10 -4z m46 -11 c-3 -20 -16 -31 -16
-13 0 13 8 28 16 28 1 0 1 -7 0 -15z m164 -20 c-6 -15 -13 -25 -17 -21 -3 3 0
17 7 31 17 32 24 26 10 -10z m170 31 c0 -2 -7 -6 -15 -10 -8 -3 -15 -1 -15 4
0 6 7 10 15 10 8 0 15 -2 15 -4z m60 -16 c0 -10 -9 -24 -20 -30 -18 -10 -20
-8 -20 20 0 23 4 30 20 30 13 0 20 -7 20 -20z m-420 -14 c0 -13 -6 -26 -14
-29 -11 -5 -12 0 -3 24 14 35 17 36 17 5z m362 -8 c-9 -9 -15 -9 -24 1 -9 10
-9 12 -1 7 6 -3 15 -1 18 5 4 5 10 8 13 4 3 -3 0 -11 -6 -17z m-212 2 c0 -5
-5 -10 -11 -10 -5 0 -7 5 -4 10 3 6 8 10 11 10 2 0 4 -4 4 -10z m-373 -6 c-3
-3 -12 -4 -19 -1 -8 3 -5 6 6 6 11 1 17 -2 13 -5z m3980 -186 c-3 -7 -5 -2 -5
12 0 14 2 19 5 13 2 -7 2 -19 0 -25z m43 5 c-1 -24 -2 -26 -11 -10 -5 9 -7 22
-4 27 10 17 15 11 15 -17z m52 -15 c-6 -6 -7 0 -4 19 5 21 7 23 10 9 2 -10 0
-22 -6 -28z m1508 -13 c50 -26 60 -60 60 -195 0 -127 -6 -152 -43 -171 -21
-11 -21 -10 3 16 l25 28 -30 -19 c-26 -17 -53 -19 -237 -22 -294 -5 -305 2
-310 196 -3 106 -2 111 22 137 14 15 34 31 45 35 11 5 114 9 228 9 167 1 214
-2 237 -14z m-1552 -52 c-10 -2 -28 -2 -40 0 -13 2 -5 4 17 4 22 1 32 -1 23
-4z m90 0 c-10 -2 -28 -2 -40 0 -13 2 -5 4 17 4 22 1 32 -1 23 -4z m185 0 c-7
-2 -19 -2 -25 0 -7 3 -2 5 12 5 14 0 19 -2 13 -5z m-3006 -58 c24 -27 25 -34
20 -113 -4 -69 -9 -88 -28 -108 -22 -24 -25 -24 -199 -24 -227 0 -220 -4 -220
129 0 88 2 99 23 118 33 30 37 31 215 29 l164 -1 25 -30z m539 2 c21 -25 24
-38 24 -107 0 -72 -2 -80 -29 -109 l-29 -31 -173 0 c-164 0 -174 1 -196 22
-21 19 -23 30 -23 113 0 142 7 146 233 143 l169 -3 24 -28z m531 9 c27 -23 28
-28 28 -116 0 -88 -1 -93 -28 -116 -27 -23 -33 -24 -196 -24 -155 0 -170 2
-195 21 -25 20 -26 24 -26 119 0 95 1 99 26 119 25 19 40 21 195 21 163 0 169
-1 196 -24z m1629 -53 c-3 -4 -6 0 -6 8 0 11 -2 11 -10 -1 -7 -12 -10 -8 -10
15 l0 29 16 -22 c9 -13 13 -26 10 -29z m21 25 c-3 -8 -6 -5 -6 6 -1 11 2 17 5
13 3 -3 4 -12 1 -19z m53 -11 c0 -7 -4 -6 -10 3 -8 13 -10 12 -10 -4 0 -11 -3
-17 -6 -13 -4 3 -4 13 0 22 6 18 26 11 26 -8z m65 13 c-3 -5 -1 -10 4 -10 6 0
11 -5 11 -11 0 -8 -5 -8 -15 1 -17 14 -20 30 -4 30 5 0 7 -4 4 -10z m55 -10
c0 -11 -2 -20 -4 -20 -2 0 -6 9 -9 20 -3 11 -1 20 4 20 5 0 9 -9 9 -20z m45
-10 c0 -13 -7 -25 -15 -27 -13 -4 -13 -3 0 6 13 9 13 11 -2 11 -18 0 -24 20
-11 34 13 12 28 -1 28 -24z m45 7 c0 -7 -4 -6 -10 3 -8 13 -10 12 -10 -4 0
-11 -3 -17 -6 -13 -4 3 -4 13 0 22 6 18 26 11 26 -8z m1051 -347 c6 0 7 5 4
10 -3 6 -1 10 4 10 6 0 11 -3 11 -7 0 -12 -20 -39 -20 -28 0 6 -5 3 -10 -5 -7
-11 -9 -6 -9 20 1 19 3 27 6 18 2 -10 9 -18 14 -18z m158 -7 c-1 -24 -3 -29
-6 -15 -2 12 -9 22 -15 22 -6 0 -8 -9 -5 -20 3 -11 1 -18 -4 -14 -14 8 -11 26
9 45 23 24 22 24 21 -18z m484 22 c4 -8 3 -16 -1 -19 -4 -3 -9 4 -9 15 -2 23
3 25 10 4z m-802 -32 c-9 -16 -10 -14 -11 12 0 21 3 26 11 18 8 -8 8 -16 0
-30z m49 15 c0 -19 -2 -20 -10 -8 -13 19 -13 30 0 30 6 0 10 -10 10 -22z m46
9 c12 16 12 14 2 -16 l-11 -34 -13 24 c-16 28 -18 52 -3 26 10 -18 11 -18 25
0z m-3469 -19 c-3 -8 -6 -5 -6 6 -1 11 2 17 5 13 3 -3 4 -12 1 -19z m3598 13
c3 -5 1 -12 -5 -16 -5 -3 -10 0 -10 7 0 9 -3 9 -10 -2 -5 -8 -10 -10 -10 -4 0
22 24 32 35 15z m42 -22 c1 -15 0 -17 -3 -6 -3 9 -10 15 -15 11 -5 -3 -6 -10
-3 -16 4 -7 2 -8 -5 -4 -8 6 -9 12 -2 20 6 7 7 16 3 21 -4 4 0 6 8 3 8 -2 16
-15 17 -29z m93 21 c0 8 2 11 5 8 3 -3 1 -18 -5 -33 -12 -32 -15 -31 -24 9 -6
26 -5 28 8 17 13 -11 16 -11 16 -1z m-335 -20 c3 -5 1 -10 -4 -10 -6 0 -11 5
-11 10 0 6 2 10 4 10 3 0 8 -4 11 -10z m-4957 -32 c-2 -6 -12 -12 -22 -14 -23
-3 -34 -14 -14 -14 21 0 25 -15 22 -70 -1 -25 -3 -64 -3 -86 -1 -41 -2 -42
-43 -50 l-43 -8 48 -4 c33 -2 47 -7 47 -18 0 -11 -16 -14 -72 -15 -136 -2
-166 9 -198 71 -25 50 -25 83 1 136 30 62 79 84 192 84 63 0 88 -3 85 -12z
m275 -2 c52 -22 79 -59 85 -114 5 -55 -10 -92 -53 -132 -24 -23 -36 -25 -134
-28 -93 -3 -108 -2 -108 12 0 9 9 16 21 16 20 1 20 2 4 14 -15 11 -18 29 -18
104 0 76 3 93 18 101 15 9 15 10 1 11 -24 0 -29 -21 -29 -115 l0 -83 -32 2
c-30 2 -33 5 -32 31 1 17 2 60 3 98 1 67 1 67 30 67 16 0 31 6 35 15 7 20 163
21 209 1z m2408 -41 c5 4 9 -1 9 -9 0 -8 -4 -17 -9 -20 -9 -6 -22 28 -20 54 1
8 4 5 6 -8 2 -12 9 -20 14 -17z m29 25 c0 -5 -4 -10 -10 -10 -5 0 -10 5 -10
10 0 6 5 10 10 10 6 0 10 -4 10 -10z m25 -30 c-5 -25 -10 -29 -19 -20 -8 10
-8 14 2 17 6 3 12 14 12 26 0 11 3 18 6 14 3 -3 3 -20 -1 -37z m55 -5 c0 -18
-5 -25 -20 -25 -13 0 -20 6 -19 18 0 10 3 12 6 5 8 -20 23 -15 23 7 0 11 2 20
5 20 3 0 5 -11 5 -25z m27 -7 c-3 -7 -5 -2 -5 12 0 14 2 19 5 13 2 -7 2 -19 0
-25z m35 5 c-3 -16 -7 -22 -10 -15 -4 13 4 42 11 42 2 0 2 -12 -1 -27z m36 -4
c-3 -8 -7 -3 -11 10 -4 17 -3 21 5 13 5 -5 8 -16 6 -23z m19 -6 c-3 -10 -5 -4
-5 12 0 17 2 24 5 18 2 -7 2 -21 0 -30z m30 5 c-3 -7 -5 -2 -5 12 0 14 2 19 5
13 2 -7 2 -19 0 -25z m30 -5 c-3 -10 -5 -4 -5 12 0 17 2 24 5 18 2 -7 2 -21 0
-30z m52 -27 c-9 -8 -10 -8 -5 2 4 7 1 12 -8 12 -9 0 -16 4 -16 10 0 5 7 7 15
4 11 -4 15 1 16 17 2 20 3 19 6 -5 3 -16 -1 -34 -8 -40z m-1434 -18 c21 -19
26 -34 30 -84 5 -77 -8 -134 -36 -156 -18 -16 -44 -18 -196 -18 -173 0 -174 0
-199 26 -25 24 -26 30 -22 115 3 85 5 92 31 115 27 23 33 24 197 24 161 0 170
-1 195 -22z m4229 -113 c-4 -8 -13 -15 -22 -15 -13 0 -12 3 4 15 24 18 25 18
18 0z m28 -80 c-3 -20 -7 -23 -18 -14 -11 9 -12 20 -5 58 1 2 7 -2 15 -8 7 -6
11 -22 8 -36z m-421 -508 c19 -8 45 -27 59 -41 24 -27 25 -33 28 -193 3 -161
3 -166 -20 -190 -45 -50 -67 -53 -360 -53 -373 0 -365 -5 -370 253 -3 143 -1
156 17 177 46 51 70 55 376 59 188 2 244 -1 270 -12z m-4101 -18 c0 -16 -18
-17 -171 -19 -126 0 -181 -5 -207 -15 -19 -9 -33 -18 -29 -21 3 -3 16 0 29 7
36 20 335 19 349 -1 11 -17 6 -326 -5 -338 -4 -4 -74 -9 -156 -10 -133 -3
-151 -2 -188 17 -70 35 -110 109 -98 180 4 25 2 31 -4 21 -28 -43 0 -149 49
-188 60 -47 58 -47 359 -51 59 -1 62 -2 62 -26 l0 -25 -163 0 c-120 0 -175 4
-208 15 -99 34 -161 121 -161 225 0 66 18 113 61 162 61 70 114 83 349 83 117
0 132 -1 132 -16z m512 -2 c97 -44 153 -136 146 -239 -6 -77 -57 -153 -131
-194 -51 -28 -57 -29 -217 -32 -116 -2 -161 0 -150 7 12 9 9 11 -12 11 -18 0
-28 5 -28 15 0 16 -8 15 225 20 112 2 152 13 199 54 28 25 56 87 55 123 -1 37
-4 30 -14 -25 -7 -41 -53 -100 -96 -123 -21 -10 -68 -14 -187 -14 -137 0 -161
2 -166 16 -3 9 -6 81 -6 160 0 203 -10 193 183 192 87 0 157 -5 165 -11 9 -7
11 -6 6 7 -7 18 -12 18 -219 17 l-140 0 -6 -173 c-3 -95 -6 -174 -7 -176 -1
-2 -7 0 -14 4 -6 4 -33 7 -60 7 l-48 -1 0 163 c0 121 3 164 13 168 6 2 33 4
60 3 37 -1 47 2 47 15 0 9 3 18 6 21 3 3 85 5 182 4 141 -2 185 -6 214 -19z
m1133 -41 c52 -22 65 -58 65 -183 0 -179 -6 -183 -311 -183 l-221 0 -34 34
-34 34 0 117 c0 64 5 125 11 136 5 11 25 29 42 39 29 18 52 20 240 20 157 0
216 -3 242 -14z m1194 -7 c44 -16 51 -40 51 -183 0 -102 -3 -126 -16 -137 -13
-11 -76 -14 -288 -16 -233 -1 -273 1 -288 14 -16 14 -18 35 -18 154 0 191 -19
179 290 179 149 0 249 -4 269 -11z m-3921 -37 l32 -23 0 -111 0 -110 -31 -29
-31 -29 -185 0 -185 0 -29 29 c-28 29 -29 32 -29 129 0 86 3 103 21 126 12 15
31 32 43 37 11 5 98 8 191 6 160 -2 172 -3 203 -25z m3999 -274 c-3 -8 -6 -5
-6 6 -1 11 2 17 5 13 3 -3 4 -12 1 -19z m-2820 -230 c-3 -8 -6 -5 -6 6 -1 11
2 17 5 13 3 -3 4 -12 1 -19z m1450 -10 c-3 -8 -6 -5 -6 6 -1 11 2 17 5 13 3
-3 4 -12 1 -19z m-352 2 c3 -5 1 -10 -4 -10 -6 0 -11 5 -11 10 0 6 2 10 4 10
3 0 8 -4 11 -10z m452 -12 c-3 -8 -6 -5 -6 6 -1 11 2 17 5 13 3 -3 4 -12 1
-19z"/>
<path d="M1945 4401 c-137 -35 -225 -156 -212 -292 12 -133 119 -229 253 -229
76 0 123 15 179 59 114 87 138 251 52 362 -60 78 -183 123 -272 100z"/>
<path d="M6426 4053 c-6 -14 -5 -15 5 -6 7 7 10 15 7 18 -3 3 -9 -2 -12 -12z"/>
<path d="M7262 4044 c-7 -8 -8 -14 -3 -14 10 0 25 19 20 25 -2 1 -10 -3 -17
-11z"/>
<path d="M6973 4023 c32 -2 81 -2 110 0 29 2 3 3 -58 3 -60 0 -84 -1 -52 -3z"/>
<path d="M4410 4190 c0 -5 25 -10 55 -10 30 0 55 5 55 10 0 6 -25 10 -55 10
-30 0 -55 -4 -55 -10z"/>
<path d="M4340 4174 c0 -15 44 -54 61 -54 8 0 22 9 32 20 26 30 20 37 -8 10
l-25 -24 -30 29 c-17 16 -30 24 -30 19z"/>
<path d="M4874 4055 c-9 -22 4 -35 37 -35 24 0 29 4 29 25 0 21 -5 25 -30 25
-18 0 -33 -6 -36 -15z"/>
<path d="M7050 3825 c0 -8 5 -15 10 -15 6 0 10 7 10 15 0 8 -4 15 -10 15 -5 0
-10 -7 -10 -15z"/>
<path d="M2641 3673 c0 -45 2 -84 7 -86 4 -3 6 23 4 56 -5 104 -9 116 -11 30z"/>
<path d="M2785 3720 c3 -5 13 -10 22 -10 13 0 12 -5 -7 -25 l-23 -24 -33 26
c-38 29 -46 18 -11 -15 31 -30 50 -28 80 8 18 21 35 30 56 30 17 0 31 5 31 10
0 6 -27 10 -61 10 -37 0 -58 -4 -54 -10z"/>
<path d="M2910 3679 c0 -5 5 -7 10 -4 6 3 10 8 10 11 0 2 -4 4 -10 4 -5 0 -10
-5 -10 -11z"/>
<path d="M2815 3640 c-3 -5 1 -10 9 -10 9 0 16 5 16 10 0 6 -4 10 -9 10 -6 0
-13 -4 -16 -10z"/>
<path d="M2731 3571 c36 -3 103 -3 150 0 66 4 53 6 -66 6 -98 0 -127 -2 -84
-6z"/>
<path d="M3455 3710 c-3 -5 -1 -10 4 -10 6 0 11 5 11 10 0 6 -2 10 -4 10 -3 0
-8 -4 -11 -10z"/>
<path d="M3324 3685 c18 -14 18 -15 -9 -27 -24 -11 -29 -10 -45 10 -27 33 -34
27 -8 -8 27 -36 37 -37 72 -5 18 17 39 25 62 25 18 0 34 5 34 10 0 6 -27 10
-62 10 -57 -1 -61 -2 -44 -15z"/>
<path d="M3180 3601 c0 -6 4 -13 10 -16 6 -3 7 1 4 9 -7 18 -14 21 -14 7z"/>
<path d="M3283 3573 c32 -2 81 -2 110 0 29 2 3 3 -58 3 -60 0 -84 -1 -52 -3z"/>
<path d="M3846 3718 c1 -13 3 -38 3 -55 2 -57 21 -36 21 22 0 39 -4 55 -13 55
-8 0 -13 -9 -11 -22z"/>
<path d="M3890 3680 c0 -5 4 -10 9 -10 6 0 13 5 16 10 3 6 -1 10 -9 10 -9 0
-16 -4 -16 -10z"/>
<path d="M3790 3674 c0 -6 7 -19 15 -30 8 -10 14 -14 14 -9 0 6 -6 19 -14 29
-8 11 -15 15 -15 10z"/>
<path d="M5267 3763 c-4 -3 1 -12 11 -20 16 -13 16 -13 -3 -11 -14 2 -21 -4
-23 -19 -3 -20 1 -23 32 -23 39 0 43 9 26 54 -9 25 -29 34 -43 19z"/>
<path d="M2340 3645 c0 -8 5 -15 10 -15 6 0 10 7 10 15 0 8 -4 15 -10 15 -5 0
-10 -7 -10 -15z"/>
<path d="M7238 3383 c12 -2 30 -2 40 0 9 3 -1 5 -23 4 -22 0 -30 -2 -17 -4z"/>
<path d="M7301 3182 c0 -13 -6 -33 -12 -45 -11 -20 -10 -21 6 -6 11 11 15 27
12 45 -3 23 -4 24 -6 6z"/>
<path d="M6903 3114 c7 -7 338 -7 345 1 3 3 -75 5 -173 5 -98 0 -176 -3 -172
-6z"/>
<path d="M2632 3188 c-3 -97 0 -98 161 -96 l132 2 -129 3 c-71 2 -135 8 -142
14 -8 6 -15 40 -17 77 l-3 67 -2 -67z"/>
<path d="M2847 3243 c-4 -3 -7 -19 -7 -35 0 -25 3 -28 35 -28 33 0 35 2 35 35
0 32 -3 35 -28 35 -16 0 -32 -3 -35 -7z"/>
<path d="M2761 3201 c0 -13 -9 -30 -18 -37 -10 -7 -13 -14 -7 -14 19 0 36 28
31 52 l-4 23 -2 -24z"/>
<path d="M2790 3179 c0 -5 5 -7 10 -4 6 3 10 8 10 11 0 2 -4 4 -10 4 -5 0 -10
-5 -10 -11z"/>
<path d="M3185 3279 c-4 -6 -5 -12 -2 -15 2 -3 7 2 10 11 7 17 1 20 -8 4z"/>
<path d="M3172 3189 c-2 -53 2 -69 16 -80 15 -12 16 -12 5 1 -7 9 -14 45 -16
80 l-3 65 -2 -66z"/>
<path d="M3340 3240 c0 -5 9 -10 20 -10 11 0 20 5 20 10 0 6 -9 10 -20 10 -11
0 -20 -4 -20 -10z"/>
<path d="M3330 3189 c0 -30 25 -45 46 -28 8 6 14 22 14 34 0 18 -5 22 -30 21
-25 -1 -30 -5 -30 -27z"/>
<path d="M3420 3169 c0 -5 5 -7 10 -4 6 3 10 8 10 11 0 2 -4 4 -10 4 -5 0 -10
-5 -10 -11z"/>
<path d="M3293 3094 c7 -7 138 -6 145 1 3 3 -30 5 -73 5 -43 0 -75 -3 -72 -6z"/>
<path d="M3866 3224 c-13 -35 -7 -44 34 -44 33 0 40 3 40 19 0 33 -63 54 -74
25z"/>
<path d="M3980 3180 c0 -5 5 -10 11 -10 5 0 7 5 4 10 -3 6 -8 10 -11 10 -2 0
-4 -4 -4 -10z"/>
<path d="M3720 3123 c0 -6 8 -17 18 -24 16 -13 16 -13 2 6 -8 11 -16 22 -17
24 -2 2 -3 0 -3 -6z"/>
<path d="M3823 3093 c32 -2 81 -2 110 0 29 2 3 3 -58 3 -60 0 -84 -1 -52 -3z"/>
<path d="M5940 3280 c0 -5 5 -10 10 -10 6 0 10 5 10 10 0 6 -4 10 -10 10 -5 0
-10 -4 -10 -10z"/>
<path d="M1785 2860 c-19 -8 -19 -9 3 -9 12 -1 22 4 22 9 0 6 -1 10 -2 9 -2 0
-12 -4 -23 -9z"/>
<path d="M1711 2737 c-1 -39 4 -53 24 -72 13 -14 34 -25 47 -25 20 1 19 2 -8
14 -31 14 -50 47 -57 101 -3 20 -5 14 -6 -18z"/>
<path d="M1799 2764 c-8 -10 -10 -21 -3 -31 16 -25 29 -19 32 15 4 35 -8 41
-29 16z"/>
<path d="M2133 2773 c-18 -7 -16 -38 2 -53 13 -11 15 -7 15 24 0 20 -1 36 -2
35 -2 0 -9 -3 -15 -6z"/>
<path d="M2264 2679 c-3 -6 -20 -17 -38 -25 -17 -7 -23 -13 -14 -14 16 0 81
49 66 50 -4 0 -10 -5 -14 -11z"/>
<path d="M2108 2633 c7 -3 16 -2 19 1 4 3 -2 6 -13 5 -11 0 -14 -3 -6 -6z"/>
<path d="M3171 2638 c0 -42 3 -79 7 -82 4 -2 6 25 4 62 -5 99 -10 107 -11 20z"/>
<path d="M3203 2544 c8 -9 276 -9 284 0 3 3 -60 6 -142 6 -82 0 -146 -3 -142
-6z"/>
<path d="M6821 2026 c-9 -11 -4 -12 29 -6 25 4 40 4 40 -3 0 -6 5 -5 13 2 10
8 17 7 27 -2 8 -7 11 -8 7 -1 -8 13 360 17 368 4 3 -4 17 -5 31 -2 20 4 25 2
19 -8 -5 -8 -3 -11 6 -8 8 3 19 -2 25 -10 9 -12 13 -12 19 -2 5 9 4 11 -3 6
-7 -4 -12 -2 -12 3 0 6 6 11 13 11 7 0 4 7 -7 15 -28 21 -558 22 -575 1z"/>
<path d="M6799 1973 c-13 -16 -12 -17 4 -4 16 13 21 21 13 21 -2 0 -10 -8 -17
-17z"/>
<path d="M7406 1693 c-6 -14 -5 -15 5 -6 7 7 10 15 7 18 -3 3 -9 -2 -12 -12z"/>
<path d="M6940 1660 c-61 -3 -88 -8 -75 -13 26 -11 464 -2 475 9 10 10 -236
13 -400 4z"/>
<path d="M4489 1979 c-15 -9 1 -13 51 -10 42 2 50 4 45 9 -10 10 -81 11 -96 1z"/>
<path d="M4665 1980 c3 -5 8 -10 11 -10 2 0 4 5 4 10 0 6 -5 10 -11 10 -5 0
-7 -4 -4 -10z"/>
<path d="M4695 1980 c4 -6 11 -8 16 -5 14 9 11 15 -7 15 -8 0 -12 -5 -9 -10z"/>
<path d="M4750 1982 c0 -4 24 -8 53 -9 28 -1 71 -3 95 -6 26 -2 39 0 33 6 -11
11 -181 20 -181 9z"/>
<path d="M4922 1890 c0 -19 2 -27 5 -17 2 9 2 25 0 35 -3 9 -5 1 -5 -18z"/>
<path d="M4462 1823 c-3 -142 -11 -138 282 -134 156 3 186 10 185 43 l0 23 -9
-22 c-5 -13 -13 -24 -17 -24 -39 -7 -403 -5 -414 1 -10 7 -16 38 -20 107 l-5
98 -2 -92z"/>
<path d="M1816 1934 c-5 -13 -3 -14 6 -6 8 6 34 12 58 15 l45 4 -51 1 c-40 2
-53 -2 -58 -14z"/>
<path d="M1938 1943 c6 -2 18 -2 25 0 6 3 1 5 -13 5 -14 0 -19 -2 -12 -5z"/>
<path d="M1988 1943 c7 -3 16 -2 19 1 4 3 -2 6 -13 5 -11 0 -14 -3 -6 -6z"/>
<path d="M2108 1943 c12 -2 30 -2 40 0 9 3 -1 5 -23 4 -22 0 -30 -2 -17 -4z"/>
<path d="M1807 1883 c-4 -3 -7 -36 -7 -73 0 -106 -1 -105 190 -105 148 0 163
2 176 19 8 11 14 24 14 30 0 6 -7 1 -15 -11 -14 -20 -22 -20 -170 -18 -107 2
-161 7 -171 16 -12 10 -15 29 -12 81 2 37 3 68 2 68 0 0 -4 -3 -7 -7z"/>
<path d="M7730 4301 c0 -6 4 -13 10 -16 6 -3 7 1 4 9 -7 18 -14 21 -14 7z"/>
<path d="M7656 4118 c3 -5 10 -6 15 -3 13 9 11 12 -6 12 -8 0 -12 -4 -9 -9z"/>
<path d="M7685 4110 c-3 -5 -1 -10 4 -10 6 0 11 5 11 10 0 6 -2 10 -4 10 -3 0
-8 -4 -11 -10z"/>
<path d="M7657 4036 c-4 -10 -1 -13 8 -9 8 3 12 9 9 14 -7 12 -11 11 -17 -5z"/>
<path d="M7649 4002 c-1 -4 -1 -11 0 -16 1 -5 -8 -6 -21 -3 -20 6 -19 4 6 -18
30 -26 50 -35 28 -13 -17 17 -15 33 2 19 10 -8 16 -9 21 -1 4 6 3 9 -2 8 -4
-2 -9 2 -9 7 -1 6 3 9 10 7 6 -2 7 0 3 4 -10 10 -37 14 -38 6z"/>
<path d="M7609 3899 c-12 -24 3 -50 16 -28 5 8 4 10 -3 5 -18 -11 -14 10 4 28
8 9 11 16 5 16 -6 0 -15 -9 -22 -21z"/>
<path d="M7656 3912 c5 -4 12 -11 15 -15 3 -5 9 -2 12 5 3 9 -3 14 -15 15 -11
1 -16 -1 -12 -5z"/>
<path d="M7641 3878 c5 -10 11 -18 12 -18 2 0 3 8 3 18 0 10 -6 19 -13 19 -8
0 -9 -6 -2 -19z"/>
<path d="M7641 3834 c-17 -14 -31 -31 -31 -37 0 -6 7 -2 15 10 9 12 21 21 28
19 6 -1 8 -1 3 2 -5 3 2 11 15 18 13 7 19 13 12 14 -6 0 -25 -12 -42 -26z"/>
<path d="M7637 3803 c-2 -5 -3 -20 -2 -35 1 -16 -2 -28 -7 -28 -4 0 -8 5 -8
11 0 5 -4 7 -10 4 -12 -7 -14 -26 -2 -23 4 1 17 -3 29 -10 21 -12 26 -3 12 23
-3 6 -5 22 -4 38 2 27 0 33 -8 20z"/>
<path d="M7700 3761 c0 -6 4 -13 10 -16 6 -3 7 1 4 9 -7 18 -14 21 -14 7z"/>
<path d="M7630 3621 c-8 -6 -18 -7 -24 -4 -5 3 -6 1 -2 -5 3 -6 15 -10 26 -9
10 1 16 5 13 11 -4 5 1 7 11 3 10 -4 15 -3 11 3 -8 12 -16 12 -35 1z"/>
<path d="M7638 3583 c7 -3 16 -2 19 1 4 3 -2 6 -13 5 -11 0 -14 -3 -6 -6z"/>
<path d="M7624 3559 c-3 -6 1 -17 10 -25 9 -8 12 -9 7 -3 -5 6 -7 18 -4 25 6
17 -3 19 -13 3z"/>
<path d="M7626 3403 c-6 -14 -5 -15 5 -6 7 7 10 15 7 18 -3 3 -9 -2 -12 -12z"/>
<path d="M7725 3281 c-3 -5 -2 -12 3 -15 5 -3 9 1 9 9 0 17 -3 19 -12 6z"/>
<path d="M7651 3242 c-6 -12 -5 -23 4 -35 11 -15 13 -15 18 -2 4 8 3 14 -1 12
-4 -1 -8 1 -9 6 -7 18 -2 27 15 27 13 0 14 -2 4 -9 -10 -6 -7 -10 11 -13 22
-4 24 -3 14 14 -15 23 -43 23 -56 0z"/>
<path d="M7686 3203 c-6 -14 -5 -15 5 -6 7 7 10 15 7 18 -3 3 -9 -2 -12 -12z"/>
<path d="M7714 3199 c-4 -7 -2 -15 4 -17 7 -2 9 -9 6 -14 -4 -6 -2 -8 4 -5 10
7 11 32 0 42 -3 4 -9 1 -14 -6z"/>
<path d="M7684 3149 c-4 -7 -3 -9 4 -5 5 3 13 0 15 -6 4 -9 6 -10 6 -1 1 17
-16 25 -25 12z"/>
<path d="M7693 3084 c0 -17 2 -22 7 -13 5 6 6 18 3 26 -8 19 -10 16 -10 -13z"/>
<path d="M7750 3040 c-9 -6 -10 -10 -3 -10 6 0 15 5 18 10 8 12 4 12 -15 0z"/>
<path d="M7712 3004 c-7 -8 -8 -14 -3 -14 10 0 25 19 20 25 -2 1 -10 -3 -17
-11z"/>
<path d="M7706 2887 c3 -10 9 -15 12 -12 3 3 0 11 -7 18 -10 9 -11 8 -5 -6z"/>
<path d="M1233 2615 c0 -27 2 -38 4 -22 2 15 2 37 0 50 -2 12 -4 0 -4 -28z"/>
<path d="M7891 2224 c0 -11 3 -14 6 -6 3 7 2 16 -1 19 -3 4 -6 -2 -5 -13z"/>
<path d="M1224 1790 c0 -52 1 -74 3 -47 2 26 2 68 0 95 -2 26 -3 4 -3 -48z"/>
<path d="M1212 1125 c-2 -82 15 -479 24 -553 l6 -60 3327 5 c1829 3 3329 8
3333 12 9 8 12 70 24 389 4 116 3 212 -1 212 -5 0 -22 -12 -39 -27 -17 -16
-24 -19 -16 -9 14 18 14 19 -7 8 -16 -9 -23 -9 -26 1 -4 8 -6 6 -6 -4 -1 -9
-8 -16 -16 -16 -8 0 -12 4 -9 9 3 4 -4 9 -15 9 -12 1 -27 2 -33 3 -7 1 -23 -1
-35 -6 -16 -5 -25 -3 -32 10 -6 9 -11 12 -11 5 0 -6 -9 -10 -20 -8 -11 2 -22
0 -25 -5 -6 -9 -24 -8 -42 3 -6 4 -15 2 -19 -4 -5 -8 -3 -9 6 -4 9 5 11 4 6
-4 -6 -9 -11 -9 -23 1 -18 15 -45 20 -37 7 3 -5 9 -7 13 -5 4 3 8 -1 8 -9 0
-10 -4 -12 -12 -5 -7 5 -15 7 -18 3 -4 -3 -7 -1 -7 4 0 15 -24 11 -45 -7 -9
-7 -15 -9 -14 -4 4 22 -2 25 -18 7 -10 -10 -15 -14 -10 -9 4 6 7 17 7 25 0 11
-4 10 -16 -5 -8 -10 -13 -14 -10 -8 3 7 -5 14 -19 16 -13 3 -22 1 -19 -3 3 -5
0 -17 -6 -26 -11 -17 -11 -17 -6 0 3 9 1 17 -5 17 -6 0 -8 4 -4 9 3 5 1 13 -5
16 -6 4 -9 1 -8 -6 2 -7 -2 -13 -9 -14 -6 0 -15 -4 -20 -9 -5 -5 -3 -6 4 -2 9
5 11 2 6 -10 -5 -15 -7 -15 -15 0 -5 9 -14 13 -20 10 -6 -4 -14 0 -19 7 -7 11
-9 11 -9 1 0 -7 -5 -10 -10 -7 -6 4 -7 11 -4 17 4 7 2 8 -5 4 -6 -4 -9 -11 -6
-16 3 -4 -2 -7 -11 -6 -8 1 -20 9 -25 17 -5 8 -9 9 -9 4 0 -6 -13 -11 -30 -11
-16 -1 -30 3 -30 9 0 6 -7 2 -16 -9 -8 -10 -12 -13 -8 -5 4 9 3 12 -4 7 -5 -3
-13 0 -15 6 -4 10 -6 9 -6 -1 -1 -10 -4 -11 -15 -2 -10 8 -16 9 -21 1 -4 -6
-1 -9 6 -8 6 2 13 -2 15 -7 3 -6 -9 -10 -28 -10 -17 0 -33 6 -36 13 -2 7 -8
12 -13 12 -4 0 -6 -8 -2 -18 3 -9 3 -14 -2 -10 -4 4 -15 2 -23 -5 -10 -8 -13
-8 -9 -1 4 7 0 14 -8 18 -8 3 -17 1 -20 -4 -10 -16 -28 -11 -21 6 3 8 2 12 -4
9 -6 -3 -10 -14 -11 -23 0 -12 -3 -10 -10 7 -9 22 -11 23 -27 8 -14 -13 -21
-14 -30 -5 -9 9 -12 9 -12 -3 0 -12 -2 -12 -9 0 -8 13 -12 13 -27 0 -10 -8
-15 -9 -12 -4 4 7 -3 11 -17 11 -13 0 -21 -4 -19 -8 3 -4 2 -8 -3 -9 -4 0 -16
-2 -26 -4 -11 -2 -16 -1 -13 2 3 4 -1 15 -11 25 -15 17 -18 17 -34 2 -17 -15
-19 -15 -25 -1 -5 15 -9 14 -25 -6 -10 -12 -18 -18 -19 -13 0 5 -8 2 -18 -7
-15 -14 -19 -15 -19 -2 0 8 5 11 11 8 6 -4 5 1 -3 10 -8 10 -16 15 -19 12 -3
-3 -10 0 -17 5 -8 7 -12 5 -12 -5 0 -8 5 -11 10 -8 6 3 7 1 3 -5 -4 -7 -2 -12
5 -12 7 0 9 -3 6 -7 -4 -3 -16 2 -27 12 -11 10 -26 15 -36 11 -13 -5 -15 -2
-11 16 6 22 5 22 -8 4 -8 -10 -12 -23 -8 -29 3 -6 1 -7 -6 -3 -6 4 -8 12 -5
18 4 7 2 8 -4 4 -7 -4 -12 -15 -12 -24 0 -15 -1 -15 -17 0 -15 16 -17 16 -30
0 -8 -9 -12 -11 -8 -4 8 15 -17 16 -32 1 -8 -8 -17 -7 -34 5 -27 18 -49 21
-49 5 0 -5 5 -7 12 -3 7 4 8 3 4 -4 -5 -9 -13 -8 -30 3 -12 8 -26 12 -30 8
-10 -10 -90 -10 -97 1 -9 11 -51 -12 -44 -25 10 -15 -2 -10 -16 8 -10 12 -10
14 -1 9 7 -4 15 -1 18 9 10 24 0 27 -23 5 -19 -17 -22 -17 -27 -3 -5 12 -9 13
-20 4 -7 -6 -22 -8 -31 -4 -14 5 -16 3 -10 -8 7 -11 6 -12 -7 -2 -8 7 -18 10
-22 6 -10 -11 -37 -12 -30 -2 3 5 10 7 15 4 5 -4 9 -2 9 4 0 6 -13 8 -32 4
-31 -6 -32 -5 -19 13 7 10 2 6 -13 -9 -14 -15 -26 -23 -26 -17 0 6 -5 8 -12 4
-19 -12 -48 -12 -55 -1 -4 6 -1 7 8 2 10 -5 11 -5 4 3 -13 14 -67 3 -58 -12 4
-6 -1 -5 -10 3 -14 11 -15 17 -5 30 10 13 10 14 -2 4 -19 -18 -33 -16 -26 3 3
9 2 12 -5 9 -6 -4 -8 -13 -5 -21 5 -13 -5 -18 -31 -15 -7 1 -13 -4 -13 -11 0
-9 -3 -9 -10 2 -5 8 -10 11 -10 7 0 -4 -9 -3 -20 3 -15 8 -20 8 -20 -2 0 -8
-3 -9 -8 -3 -9 13 -35 18 -27 5 3 -5 1 -10 -4 -10 -6 0 -11 5 -11 11 0 7 -7 8
-17 4 -10 -4 -28 -7 -40 -6 -13 0 -23 -5 -23 -12 0 -6 -5 -4 -11 6 -5 9 -17
17 -25 17 -8 0 -12 -4 -9 -10 3 -6 -1 -7 -10 -4 -12 5 -14 2 -8 -12 6 -16 5
-17 -9 -4 -9 8 -14 18 -11 23 6 9 -1 9 -32 -3 -21 -8 -30 -7 -43 6 -14 15 -16
15 -24 -5 -7 -19 -22 -32 -15 -13 2 8 -6 12 -24 12 -7 0 -8 -5 -3 -13 5 -7 1
-4 -8 6 -17 18 -22 16 -19 -8 1 -5 -5 -2 -12 7 -9 11 -18 14 -28 8 -7 -5 -28
-9 -45 -8 -17 1 -36 -2 -42 -6 -7 -4 -12 -3 -12 2 0 5 -9 12 -21 15 -15 4 -18
2 -10 -7 7 -8 4 -16 -12 -26 -19 -11 -20 -11 -10 1 13 16 6 32 -16 37 -12 3
-12 0 -1 -13 11 -13 10 -15 -6 -9 -10 4 -28 14 -39 23 -19 15 -19 15 -5 -2 12
-17 12 -18 -6 -15 -11 2 -18 -2 -17 -9 2 -7 -2 -13 -8 -13 -7 0 -9 9 -6 23 5
20 5 20 -7 5 -13 -18 -32 -26 -22 -10 2 4 -4 8 -15 8 -10 0 -19 -4 -19 -8 0
-4 -6 -5 -14 -2 -8 3 -17 0 -21 -5 -4 -8 -15 -4 -33 9 -24 19 -27 20 -38 5
-11 -15 -13 -15 -18 2 -3 10 -4 5 -2 -12 4 -26 3 -28 -9 -12 -8 11 -19 15 -31
11 -14 -4 -15 -3 -6 4 10 6 2 9 -27 9 -23 0 -41 -2 -41 -6 0 -3 -20 -6 -45 -6
-25 0 -45 3 -45 7 0 3 -15 5 -32 4 -18 -1 -39 3 -46 11 -17 17 -32 8 -32 -18
0 -19 -1 -19 -16 -4 -9 9 -24 13 -34 10 -15 -5 -18 -1 -14 17 2 13 1 16 -2 8
-10 -22 -34 -43 -34 -31 0 6 -7 11 -16 11 -8 0 -13 4 -9 9 3 5 1 12 -3 15 -5
3 -9 -6 -8 -19 0 -14 -3 -24 -9 -22 -5 1 -9 8 -9 15 2 17 -13 15 -24 -4 -7
-12 -11 -13 -17 -5 -5 9 -11 8 -24 -3 -15 -14 -18 -14 -18 -1 0 8 5 11 10 8 6
-3 7 -1 3 6 -6 9 -11 9 -22 0 -11 -9 -14 -8 -14 2 0 11 -2 11 -9 -1 -6 -8 -7
-18 -4 -24 3 -5 1 -6 -6 -2 -6 4 -9 12 -6 17 4 5 -1 9 -10 9 -9 0 -13 -5 -10
-10 3 -6 -1 -10 -9 -10 -9 0 -16 5 -16 11 0 5 -5 7 -10 4 -6 -4 -8 -10 -5 -15
3 -5 0 -12 -6 -16 -7 -4 -9 -3 -6 3 4 6 -1 14 -10 17 -9 4 -20 1 -25 -6 -6
-10 -8 -9 -8 4 0 11 -6 15 -20 11 -13 -4 -26 1 -34 12 -7 10 -21 20 -31 21 -9
1 -14 -1 -10 -4 4 -4 12 -7 18 -7 7 0 12 -9 13 -21 1 -11 -5 -21 -12 -21 -11
0 -11 3 -1 16 10 12 9 13 -1 7 -7 -4 -20 -2 -28 5 -9 8 -18 9 -22 3 -4 -5 -17
-15 -30 -22 -17 -9 -21 -9 -20 0 2 6 -10 13 -25 14 -20 2 -27 -1 -24 -10 3 -7
-1 -13 -9 -13 -12 0 -12 3 0 22 12 18 12 22 1 22 -8 0 -12 -4 -10 -8 3 -4 -7
-15 -21 -24 -15 -9 -24 -13 -21 -9 3 5 -2 16 -11 24 -14 13 -15 13 -10 -1 4
-10 1 -16 -8 -16 -8 0 -13 6 -10 14 4 10 1 10 -14 1 -10 -7 -16 -16 -13 -21 3
-5 -4 -3 -16 5 -12 7 -21 17 -22 23 0 5 -4 1 -9 -10 -7 -17 -9 -17 -9 -2 -1 9
-5 17 -11 17 -5 0 -7 -6 -4 -13 5 -14 -21 -17 -41 -5 -6 3 -25 9 -44 13 -24 5
-31 4 -27 -4 4 -6 12 -8 18 -5 7 4 8 2 4 -4 -4 -6 -13 -9 -21 -5 -8 3 -15 0
-15 -7 0 -7 -6 -5 -16 5 -14 13 -19 14 -25 3 -6 -9 -9 -6 -9 10 0 13 -4 21
-10 17 -5 -3 -7 -12 -3 -20 3 -8 0 -15 -7 -15 -6 0 -9 4 -5 9 3 5 1 12 -5 16
-5 3 -10 0 -10 -8 0 -8 -8 -21 -17 -28 -15 -12 -16 -12 -8 1 14 23 14 38 0 50
-11 9 -12 7 -8 -8 2 -11 -1 -23 -8 -28 -9 -5 -11 -2 -6 9 3 9 -1 21 -11 29 -8
7 -13 8 -9 2 3 -6 -4 -21 -17 -33 -18 -17 -26 -19 -31 -10 -5 7 -4 10 3 5 6
-3 13 -2 17 4 3 5 -2 10 -12 10 -11 0 -25 6 -32 13 -10 10 -11 9 -6 -4 3 -9 0
-21 -8 -27 -11 -9 -14 -8 -14 3 0 8 5 11 10 8 6 -4 7 -1 3 6 -6 9 -12 9 -25
-3 -22 -20 -31 -20 -31 0 0 14 -2 15 -17 3 -14 -12 -16 -12 -8 0 6 11 4 13 -9
8 -10 -4 -22 -7 -27 -7 -6 0 -8 -4 -4 -10 3 -5 -7 -5 -25 1 -16 6 -27 15 -24
20 3 5 -3 6 -12 2 -13 -5 -15 -3 -9 8 8 12 6 12 -8 0 -18 -15 -23 -26 -7 -16
6 3 10 1 10 -5 0 -6 -8 -10 -17 -8 -10 2 -17 11 -15 19 1 9 -3 7 -13 -5 -8
-11 -15 -16 -15 -11 0 5 -7 0 -15 -11 -13 -18 -14 -18 -9 6 5 20 3 22 -5 10
-9 -13 -12 -13 -20 -1 -7 11 -11 10 -20 -5 -8 -14 -11 -15 -11 -4 0 13 -1 13
-10 0 -7 -12 -10 -12 -10 -1 0 9 -8 11 -24 7 -15 -4 -26 -1 -29 7 -3 7 -6 5
-6 -5 -1 -9 -5 -19 -10 -22 -4 -3 -6 7 -4 22 l4 27 -14 -24 c-11 -18 -16 -20
-20 -10 -5 12 -7 12 -16 -1 -9 -13 -11 -12 -12 5 0 11 -3 14 -6 7 -2 -6 -10
-9 -16 -5 -7 4 -24 8 -39 8 -23 1 -25 -2 -15 -15 7 -9 4 -9 -9 3 -21 17 -22
17 -27 -5 -6 -21 -7 -21 -25 -5 -22 20 -36 22 -26 5 5 -9 3 -9 -9 1 -9 7 -15
17 -12 21 3 5 1 12 -5 15 -6 4 -9 1 -8 -7 2 -9 -10 -14 -37 -16 -22 -2 -46 -9
-54 -15 -12 -10 -13 -9 -6 3 8 13 7 13 -8 1 -15 -12 -17 -11 -17 3 0 9 -5 16
-11 16 -5 0 -7 -5 -4 -10 3 -5 1 -10 -5 -10 -6 0 -8 -6 -5 -12 4 -7 0 -6 -7 4
-11 13 -18 14 -33 5 -19 -10 -19 -9 -5 9 15 18 14 18 -12 1 -32 -20 -38 -21
-38 -6 0 5 5 7 12 3 7 -4 8 -3 4 5 -6 8 -12 9 -20 2 -8 -7 -16 -7 -22 -1 -10
10 -54 2 -54 -9 0 -4 -16 -5 -35 -3 -19 2 -32 8 -29 13 3 5 0 9 -5 9 -6 0 -11
-3 -11 -7 0 -5 -11 -9 -25 -9 -16 -1 -22 2 -18 10 4 6 -1 5 -10 -3 -14 -11
-20 -11 -34 0 -15 12 -16 12 -10 -6 6 -16 3 -15 -13 5 -11 14 -18 18 -15 9 4
-10 0 -16 -10 -16 -8 0 -15 3 -15 7 0 3 -22 6 -49 5 -29 -1 -48 3 -47 10 2 5
1 7 -2 2 -2 -4 -12 -12 -22 -17 -16 -9 -18 -7 -15 11 3 16 1 18 -9 10 -7 -6
-17 -7 -21 -3 -5 4 -5 1 -1 -5 4 -7 2 -13 -3 -13 -6 0 -11 4 -11 9 0 4 -16 8
-35 7 -19 0 -35 -5 -35 -11 0 -5 -5 -3 -10 5 -7 11 -10 11 -10 2 0 -10 -5 -10
-20 -2 -13 7 -20 7 -20 1 0 -14 -32 -1 -46 17 -9 12 -13 13 -19 2 -5 -9 -4
-11 3 -6 7 4 12 3 12 -2 0 -5 -29 -9 -64 -8 -35 1 -62 4 -60 7 2 4 -11 5 -29
3 -17 -1 -32 -3 -32 -4 0 -1 -10 -3 -22 -4 -12 -1 -20 1 -18 5 3 4 -2 10 -11
13 -11 4 -15 2 -11 -7 3 -8 -1 -14 -9 -14 -7 0 -11 4 -8 9 3 4 -4 8 -15 8 -10
0 -22 -6 -24 -12 -4 -10 -6 -10 -6 0 -1 6 -7 12 -15 12 -9 0 -16 13 -19 33 -2
18 -4 6 -5 -28z m6701 -20 c-3 -9 -8 -14 -10 -11 -3 3 -2 9 2 15 9 16 15 13 8
-4z m-3528 -35 l20 -25 -22 19 c-13 11 -23 24 -23 29 0 6 1 8 3 6 1 -2 11 -15
22 -29z m2265 2 c-6 -2 -7 -9 -4 -14 4 -6 2 -8 -4 -5 -5 4 -9 15 -7 25 2 9 4
19 4 22 1 3 6 -2 11 -10 6 -10 6 -16 0 -18z m-4450 8 c0 -5 -2 -10 -4 -10 -3
0 -8 5 -11 10 -3 6 -1 10 4 10 6 0 11 -4 11 -10z m440 4 c0 -8 -19 -13 -24 -6
-3 5 1 9 9 9 8 0 15 -2 15 -3z m1197 -16 c-3 -8 -6 -5 -6 6 -1 11 2 17 5 13 3
-3 4 -12 1 -19z m867 6 c3 -8 2 -12 -4 -9 -6 3 -10 10 -10 16 0 14 7 11 14 -7z
m956 8 c0 -5 -7 -9 -15 -9 -8 0 -12 4 -9 9 3 4 9 8 15 8 5 0 9 -4 9 -8z m1424
-8 c3 -8 2 -12 -4 -9 -6 3 -10 10 -10 16 0 14 7 11 14 -7z m86 10 c0 -8 -19
-13 -24 -6 -3 5 1 9 9 9 8 0 15 -2 15 -3z"/>
<path d="M5337 1119 c7 -7 15 -10 18 -7 3 3 -2 9 -12 12 -14 6 -15 5 -6 -5z"/>
<path d="M3381 1103 c7 -12 15 -20 18 -17 3 2 -3 12 -13 22 -17 16 -18 16 -5
-5z"/>
<path d="M3587 1109 c7 -7 15 -10 18 -7 3 3 -2 9 -12 12 -14 6 -15 5 -6 -5z"/>
<path d="M4970 1116 c0 -2 7 -7 16 -10 8 -3 12 -2 9 4 -6 10 -25 14 -25 6z"/>
<path d="M4766 1098 c3 -5 10 -6 15 -3 13 9 11 12 -6 12 -8 0 -12 -4 -9 -9z"/>
<path d="M6315 1100 c-4 -7 -15 -10 -25 -7 -13 3 -17 0 -13 -9 3 -8 8 -14 12
-14 12 1 44 30 39 36 -3 3 -9 0 -13 -6z"/>
<path d="M6371 1094 c0 -11 3 -14 6 -6 3 7 2 16 -1 19 -3 4 -6 -2 -5 -13z"/>
<path d="M2530 1091 c0 -6 4 -13 10 -16 6 -3 7 1 4 9 -7 18 -14 21 -14 7z"/>
<path d="M6685 1080 c3 -5 8 -10 11 -10 2 0 4 5 4 10 0 6 -5 10 -11 10 -5 0
-7 -4 -4 -10z"/>
</g>
</svg>
